{"title":"Guardians Of The Galaxy 2014 720p NEW HDCAM V2 x264 Pimp4003","uid":10727173,"size":1808778526,"categoryP":"video","categoryS":"movies","magnet":"?xt=urn:btih:51f45ac2b3eee09617baeba69019574673471ea2&amp;dn=Guardians+Of+The+Galaxy+2014+720p+NEW+HDCAM+V2+x264+Pimp4003&amp;tr=udp%3A%2F%2Ftracker.openbittorrent.com%3A80&amp;tr=udp%3A%2F%2Fopen.demonii.com%3A1337&amp;tr=udp%3A%2F%2Ftracker.coppersurfer.tk%3A6969&amp;tr=udp%3A%2F%2Fexodus.desync.com%3A6969","seeders":11,"leechers":1,"uploader":"shawnmurthy","files":-1,"time":1407545372,"description":"[color=red][b]THIS IS DEFF BETTER THEN MY OTHER CAM THE VIDEO AND AUDIO IS MUCH BETTER.....BUT ONLY THING IS THERE IS A HEAD AT THE BOTTOM OF THE SCREEN...SO TAKE IT OR LEAVE IT.......ENJOY...PIMP4003 OUT[/b][/color]\n\n[IMG]http://i.imgur.com/fW5GLTr.jpg[/IMG]\n\n[URL=http://istoreimg.com/i/53dcab75daf82.html][IMG]http://istoreimg.com/upload/small/2014/08/02/53dcab75daf46.jpg[/IMG][/URL]\n\n[color=blue][b]SUPER FAST DOWNLOAD SPEEDS, REQUESTS, SCREENSHOTS, VIDEO INFO, SAMPLE AND FOR EXCLUSIVE RELEASES VISIT BELOW LINK[/b][/color]\n\nGuardians Of The Galaxy 2014 720p NEW HDCAM V2 x264 Pimp4003\n\nENJOY\n\nPIMP4003.....:)\n\nVideo\nID                                       : 2\nFormat                                   : AVC\nFormat/Info                              : Advanced Video Codec\nFormat profile                           : &lt;a class=&quot;__cf_email__&quot; href=&quot;/cdn-cgi/l/email-protection&quot; data-cfemail=&quot;f6b49785939a9f9893b6bac5d8c6&quot;&gt;[email&amp;#160;protected]&lt;/a&gt;&lt;script cf-hash='f9e31' type=&quot;text/javascript&quot;&gt;\n/* &lt;![CDATA[ */!function(){try{var t=&quot;currentScript&quot;in document?document.currentScript:function(){for(var t=document.getElementsByTagName(&quot;script&quot;),e=t.length;e--;)if(t[e].getAttribute(&quot;cf-hash&quot;))return t[e]}();if(t&amp;&amp;t.previousSibling){var e,r,n,i,c=t.previousSibling,a=c.getAttribute(&quot;data-cfemail&quot;);if(a){for(e=&quot;&quot;,r=parseInt(a.substr(0,2),16),n=2;a.length-n;n+=2)i=parseInt(a.substr(n,2),16)^r,e+=String.fromCharCode(i);e=document.createTextNode(e),c.parentNode.replaceChild(e,c)}}}catch(u){}}();/* ]]&gt; */&lt;/script&gt;\nFormat settings, CABAC                   : No\nFormat settings, ReFrames                : 1 frame\nFormat settings, GOP                     : M=1, N=25\nMuxing mode                              : Container profile=&lt;a class=&quot;__cf_email__&quot; href=&quot;/cdn-cgi/l/email-protection&quot; data-cfemail=&quot;98daf9ebfdf4f1f6fdd8acb6a9&quot;&gt;[email&amp;#160;protected]&lt;/a&gt;&lt;script cf-hash='f9e31' type=&quot;text/javascript&quot;&gt;\n/* &lt;![CDATA[ */!function(){try{var t=&quot;currentScript&quot;in document?document.currentScript:function(){for(var t=document.getElementsByTagName(&quot;script&quot;),e=t.length;e--;)if(t[e].getAttribute(&quot;cf-hash&quot;))return t[e]}();if(t&amp;&amp;t.previousSibling){var e,r,n,i,c=t.previousSibling,a=c.getAttribute(&quot;data-cfemail&quot;);if(a){for(e=&quot;&quot;,r=parseInt(a.substr(0,2),16),n=2;a.length-n;n+=2)i=parseInt(a.substr(n,2),16)^r,e+=String.fromCharCode(i);e=document.createTextNode(e),c.parentNode.replaceChild(e,c)}}}catch(u){}}();/* ]]&gt; */&lt;/script&gt;\nCodec ID                                 : avc1\nCodec ID/Info                            : Advanced Video Coding\nDuration                                 : 1h 52mn\nBit rate                                 : 2 090 Kbps\nWidth                                    : 1 280 pixels\nHeight                                   : 720 pixels\nDisplay aspect ratio                     : 16:9\nFrame rate mode                          : Constant\nFrame rate                               : 23.976 fps\nOriginal frame rate                      : 23.000 fps\nColor space                              : YUV\nChroma subsampling                       : 4:2:0\nBit depth                                : 8 bits\nScan type                                : Progressive\nBits/(Pixel*Frame)                       : 0.095\nStream size                              : 1.64 GiB (97%)\nWriting library                          : \nLanguage                                 : English\n\nAudio\nID                                       : 1\nFormat                                   : AAC\nFormat/Info                              : Advanced Audio Codec\nFormat profile                           : LC\nCodec ID                                 : 40\nDuration                                 : 1h 52mn\nBit rate mode                            : Constant\nBit rate                                 : 54.1 Kbps\nChannel(s)                               : 6 channels\nChannel positions                        : Front: L C R, Side: L R, LFE\nSampling rate                            : 48.0 KHz\nCompression mode                         : Lossy\nStream size                              : 43.4 MiB (3%)\nLanguage                                 : English\n &lt;a href=&quot;\nhttp://istoreimg.com/upload/big/2014/08/08/53e424a9104a5.png&quot; rel=&quot;nofollow&quot; target=&quot;_NEW&quot;&gt;\nhttp://istoreimg.com/upload/big/2014/08/08/53e424a9104a5.png&lt;/a&gt;\n &lt;a href=&quot;\nhttp://istoreimg.com/upload/big/2014/08/08/53e424abeda64.png&quot; rel=&quot;nofollow&quot; target=&quot;_NEW&quot;&gt;\nhttp://istoreimg.com/upload/big/2014/08/08/53e424abeda64.png&lt;/a&gt;","torrent":{"xt":"urn:btih:51f45ac2b3eee09617baeba69019574673471ea2","amp;dn":"Guardians+Of+The+Galaxy+2014+720p+NEW+HDCAM+V2+x264+Pimp4003","amp;tr":["udp%3A%2F%2Ftracker.openbittorrent.com%3A80","udp%3A%2F%2Fopen.demonii.com%3A1337","udp%3A%2F%2Ftracker.coppersurfer.tk%3A6969","udp%3A%2F%2Fexodus.desync.com%3A6969"],"infoHash":"51f45ac2b3eee09617baeba69019574673471ea2","infoHashBuffer":{"type":"Buffer","data":[81,244,90,194,179,238,224,150,23,186,235,166,144,25,87,70,115,71,30,162]},"announce":[],"urlList":[]}}